<svg width="30" height="30" viewBox="0 0 30 30" fill="none" xmlns="http://www.w3.org/2000/svg">
<path d="M15 0C23.2843 0 30 6.71573 30 15C30 23.2843 23.2843 30 15 30C6.71573 30 0 23.2843 0 15C0 6.71573 6.71573 0 15 0ZM8 14.9629C9.86914 14.9629 11.6387 15.7012 12.9629 17.0254C14.2871 18.3496 15.0195 20.1191 15.0195 21.9941V22H17.8965C17.8965 19.2695 16.7832 16.8027 14.9902 15.0039C13.2031 13.2109 10.7305 12.1035 8 12.0977V14.9629ZM8.00586 9.86523C14.6914 9.87109 20.123 15.3145 20.1289 22H23C23 17.8633 21.3184 14.1191 18.5996 11.4004C15.8867 8.68164 12.1426 7 8.00586 7V9.86523ZM9.99219 18.0098C9.44141 18.0098 8.94922 18.2324 8.58594 18.5957C8.22266 18.959 8 19.4512 8 20.002C8 20.5469 8.22266 21.0391 8.58594 21.4023C8.94922 21.7598 9.44141 21.9824 9.99219 21.9824C10.543 21.9824 11.0352 21.7656 11.3984 21.4023C11.7617 21.0391 11.9844 20.5469 11.9844 20.002C11.9844 19.4512 11.7617 18.959 11.3984 18.5957C11.0352 18.2324 10.543 18.0098 9.99219 18.0098Z" fill="white"/>
</svg>
