<svg width="32" height="31" viewBox="0 0 32 31" fill="none" xmlns="http://www.w3.org/2000/svg">
<path d="M15.7314 0C24.3802 0 31.3916 6.92392 31.3916 15.4648V15.5352C31.3916 24.0761 24.3802 31 15.7314 31H15.6602C7.01139 31 0 24.0761 0 15.5352V15.4648C0 6.92392 7.01139 0 15.6602 0H15.7314ZM24.4561 7.93066C24.1232 7.78833 23.7399 7.81479 23.3926 7.87988C23.2094 7.91409 23.0317 7.97581 22.8496 8.00781C22.6329 8.04534 22.4141 8.17371 22.2119 8.25977C21.3029 8.64367 20.3925 9.0282 19.4834 9.41211C18.5742 9.79608 17.6631 10.1815 16.7539 10.5654C15.8448 10.9494 14.9345 11.3348 14.0254 11.7188C13.1163 12.1027 12.2059 12.4872 11.2969 12.8711L9.93262 13.4482C9.7048 13.5442 9.47782 13.6404 9.25 13.7363C9.13742 13.7848 9.02385 13.8324 8.91016 13.8809C8.85104 13.9062 8.79154 13.9307 8.73242 13.9561C8.69333 13.9715 8.62336 14.0186 8.58203 14.0186C7.81593 14.3429 7.04916 14.6683 6.29199 15.0146C6.24843 15.0345 6.20288 15.0551 6.1582 15.0771L6.15625 15.0762C5.97207 15.1688 5.79652 15.2822 5.70605 15.4619C5.56198 15.7488 5.69949 16.111 5.93848 16.3262C6.17751 16.5413 6.49724 16.6444 6.80664 16.7393C7.38838 16.919 7.97253 17.0928 8.55762 17.2627C9.25573 17.4657 9.98253 17.665 10.7041 17.5635C11.5104 17.4508 12.2119 16.9785 12.8809 16.5195C14.9316 15.1127 16.9815 13.7047 19.0322 12.2979C19.1952 12.1865 19.4005 12.0693 19.5791 12.1553C19.8796 12.2998 19.7072 12.7525 19.4883 13.0029C17.9368 14.7792 15.8515 16.0595 14.4062 17.9219C14.2321 18.1458 14.0608 18.3973 14.0586 18.6797C14.0541 19.1484 14.4944 19.486 14.8896 19.7441C16.5528 20.832 18.2177 21.9199 19.8809 23.0078C20.2819 23.2693 20.6908 23.5352 21.1543 23.6621C21.6178 23.7879 22.1521 23.7548 22.5273 23.458C22.9704 23.1071 23.086 22.4982 23.1709 21.9434C23.7942 17.8985 24.4169 13.8525 25.0391 9.80762C25.1284 9.22727 25.1878 8.54939 24.7656 8.13672C24.6774 8.04959 24.571 7.98031 24.4561 7.93066Z" fill="white"/>
</svg>
