<svg width="31" height="31" viewBox="0 0 31 31" fill="none" xmlns="http://www.w3.org/2000/svg">
<path d="M16.0117 0C22.9787 8.83928e-10 26.4625 -0.000368458 28.627 2.17871C30.7913 4.35783 30.791 7.86544 30.791 14.8799V16.1201C30.791 23.1346 30.7913 26.6421 28.627 28.8213C26.4625 31.0004 22.9787 31 16.0117 31H14.7793C7.81231 31 4.32846 31.0004 2.16406 28.8213C-0.000333778 26.6421 0 23.1346 0 16.1201V14.8799C1.27113e-10 7.86544 -0.000352096 4.35783 2.16406 2.17871C4.32846 -0.000355523 7.81234 6.59985e-10 14.7793 0H16.0117ZM5.19629 9.42969C5.36323 17.4894 9.36616 22.333 16.3838 22.333H16.7812V17.7217C19.36 17.98 21.3102 19.8789 22.0928 22.333H25.7363C24.7356 18.6647 22.1051 16.6363 20.4629 15.8613C22.105 14.9055 24.414 12.5811 24.9658 9.42969H21.6562C20.9377 11.987 18.8082 14.3116 16.7812 14.5312V9.42969H13.4707V18.3672C11.4181 17.8503 8.82653 15.3448 8.71094 9.42969H5.19629Z" fill="white"/>
</svg>
