<svg xmlns="http://www.w3.org/2000/svg" viewBox="0 0 82.86 60.63"><defs><style>.cls-1{fill:#fff;}</style></defs><g id="Слой_2" data-name="Слой 2"><g id="Слой_2-2" data-name="Слой 2"><path class="cls-1" d="M81.75,13l-.24.09c-.42.14-.83.3-1.23.45L79.21,14a33.12,33.12,0,0,0-6.92,4l-.68.52A30.61,30.61,0,1,0,17.48,46.71a31,31,0,0,1,5.13-.43,30.52,30.52,0,0,1,21.51,8.84l1.11-1.07c.92-.89,1.84-1.75,2.74-2.6q1.66-1.56,3.27-3a9.77,9.77,0,0,1,.14-1.72,22.74,22.74,0,0,1,1.18-4.38V39.87a2.74,2.74,0,0,0-1.73-2.5,4.56,4.56,0,0,0-.52-.18v-.31a5.5,5.5,0,0,0,1-.27,2.84,2.84,0,0,0,2-2.46,2.45,2.45,0,0,0-1.09-1.93,6.94,6.94,0,0,1-.8-.46h0a5.74,5.74,0,0,1-1-.9,4.55,4.55,0,0,1-.62-.84,3.55,3.55,0,0,1-.32-.61,6.15,6.15,0,0,1-.38.67,5.49,5.49,0,0,1-.61.76,5.56,5.56,0,0,1-1.09.9,6.44,6.44,0,0,1-.73.4,2.49,2.49,0,0,0-1.22,2,2.82,2.82,0,0,0,2.06,2.46,6.18,6.18,0,0,0,.92.27v.33a4.16,4.16,0,0,0-.5.16,2.78,2.78,0,0,0-1.71,2.5v4.59h-1V39.68A3.21,3.21,0,0,1,46.75,37a3.29,3.29,0,0,1-2.13-2.82,2.55,2.55,0,0,1,.54-1.56,3.54,3.54,0,0,1,1-1,3.36,3.36,0,0,1,.56-.31h0a5.53,5.53,0,0,0,2.31-2.85V25.54H47.92V25h1.16V23.17h.7V25h1.15v.56H49.78v2.94A5.46,5.46,0,0,0,52,31.32a5.67,5.67,0,0,0,.8.45,3.44,3.44,0,0,1,.9.93,2.56,2.56,0,0,1,.47,1.45A3.25,3.25,0,0,1,52,37a3.23,3.23,0,0,1,1.57,2.73v.14a24.52,24.52,0,0,1,4.19-6.47.87.87,0,0,1,.16.26,5.29,5.29,0,0,1,.29,2.68c.54-1.6.65-2.88.27-3.61a.71.71,0,0,0-.08-.15,33.46,33.46,0,0,1,4.12-6.36c3.15-3.89,6.5-6.66,8.56-7.23-.45.37-.9.75-1.31,1.15a23.52,23.52,0,0,0-4.44,5.61,25,25,0,0,1,4.9-5.1c.56-.45,1.14-.88,1.75-1.3l.68-.46a34.58,34.58,0,0,1,6.41-3.21c.39-.15.78-.3,1.18-.43l1-.33a18,18,0,0,1-1.58,4.65,22.42,22.42,0,0,1-2.48,4h0a27.31,27.31,0,0,1-2.39,2.73c-.49.49-1,1-1.55,1.45l-.11.09h0a34.55,34.55,0,0,1-4.32,3.16h0l-.07,0-.9.54A31.57,31.57,0,0,0,65,33.58c.51-.2,1-.42,1.52-.66l.54-.26,0,0c.85-.41,1.68-.85,2.47-1.32a32.8,32.8,0,0,1,3.31-1.38l.35-.13c.4-.14.8-.27,1.21-.39-.46.78-1,1.53-1.46,2.25h0c-.44.63-.9,1.24-1.37,1.82l0,0a30.53,30.53,0,0,1-6.5,6c-.5.34-1,.66-1.52.95a20.16,20.16,0,0,1-2.6,1.28,20.3,20.3,0,0,0,2.71-1.07c.54-.26,1.08-.54,1.62-.85a27.41,27.41,0,0,0,4.86-3.59h0a0,0,0,0,1,0,0h0a26.55,26.55,0,0,0,2.11-2.13,33.62,33.62,0,0,0,3-3.88h0c.2-.3.39-.61.58-.92L76,29c.28-.47.54-.93.78-1.4l-.61.18-1,.32-.09,0c-.61.21-1.21.43-1.8.68.6-.47,1.17-1,1.71-1.45q.54-.48,1-1a27.25,27.25,0,0,0,2.55-2.88v0a20.07,20.07,0,0,0,4.09-9,12,12,0,0,0,.18-1.87Q82.31,12.77,81.75,13ZM28.37,39.68v4.78h-1V39.87a2.74,2.74,0,0,0-1.73-2.5,4.56,4.56,0,0,0-.52-.18v-.31a5.63,5.63,0,0,0,1-.27,2.83,2.83,0,0,0,2-2.46A2.45,2.45,0,0,0,27,32.22a8,8,0,0,1-.81-.46,0,0,0,0,0,0,0,6.19,6.19,0,0,1-1-.9,5.69,5.69,0,0,1-.62-.84,4.42,4.42,0,0,1-.32-.61,4.84,4.84,0,0,1-.38.67,6.26,6.26,0,0,1-.6.76,5.34,5.34,0,0,1-1.1.9,6.3,6.3,0,0,1-.72.4,2.49,2.49,0,0,0-1.22,2,2.82,2.82,0,0,0,2.05,2.46,6.69,6.69,0,0,0,.93.27v.33a4.16,4.16,0,0,0-.5.16A2.76,2.76,0,0,0,21,39.87v4.59H20V39.68A3.21,3.21,0,0,1,21.53,37a3.29,3.29,0,0,1-2.14-2.82,2.56,2.56,0,0,1,.55-1.56,3.63,3.63,0,0,1,1-1,3.91,3.91,0,0,1,.57-.31h0a5.46,5.46,0,0,0,2.3-2.85V25.54H22.7V25h1.15V23.17h.7V25h1.16v.56H24.55v2.91a0,0,0,0,0,0,0,5.44,5.44,0,0,0,2.16,2.84,6.41,6.41,0,0,0,.81.45,3.26,3.26,0,0,1,.89.93,2.48,2.48,0,0,1,.47,1.45A3.24,3.24,0,0,1,26.8,37,3.23,3.23,0,0,1,28.37,39.68Zm12.78-9a6.07,6.07,0,0,1,2.6,5v8.75H42V36.05a5.06,5.06,0,0,0-2.87-4.59,4.78,4.78,0,0,0-.85-.31v-.59a7.19,7.19,0,0,0,1.59-.49,5.09,5.09,0,0,0,3.37-4.5A4.65,4.65,0,0,0,41.48,22a9.62,9.62,0,0,1-1.33-.84,0,0,0,0,0,0,0,10.3,10.3,0,0,1-1.66-1.64,10.6,10.6,0,0,1-1-1.54,8.16,8.16,0,0,1-.53-1.12,8.9,8.9,0,0,1-.63,1.23,10.5,10.5,0,0,1-1,1.4,9.73,9.73,0,0,1-1.81,1.64,10.37,10.37,0,0,1-1.2.73,4.67,4.67,0,0,0-2,3.71,5.1,5.1,0,0,0,3.41,4.51,8,8,0,0,0,1.53.48v.61a4.57,4.57,0,0,0-.83.31,5.06,5.06,0,0,0-2.83,4.57v8.41H29.86V35.71a6,6,0,0,1,2.56-5,6,6,0,0,1-3.53-5.17,5.06,5.06,0,0,1,.9-2.87A6.58,6.58,0,0,1,31.51,21a4.9,4.9,0,0,1,.94-.57h0a9.93,9.93,0,0,0,3.81-5.24V9.78H34.36v-1h1.91V5.44h1.16V8.75h1.92v1H37.43v5.33a.08.08,0,0,0,0,.07A9.9,9.9,0,0,0,41,20.37a8.29,8.29,0,0,0,1.33.84,5.8,5.8,0,0,1,1.48,1.7,4.92,4.92,0,0,1,.78,2.66A5.93,5.93,0,0,1,41.15,30.7Z"/><path class="cls-1" d="M65.82,40.94c-.54.18-1.07.37-1.59.59-.76.28-1.52.62-2.27,1A30.67,30.67,0,0,0,58,44.79v0a29.56,29.56,0,0,1,6.57-2.24,2.47,2.47,0,0,1,.29-.06l.07,0,0,0a30.82,30.82,0,0,1-3.74,3,30.47,30.47,0,0,1-3.4,2c-.25.14-.51.26-.77.38-.68.32-1.37.62-2,.87s-1.06.39-1.58.54a.83.83,0,0,1-.21.06l.51-.67c1.47-2,3-4.11,4.4-6.33.64-1,1.25-2,1.85-2.92l.61-1c1.26-2,2.62-4.11,4.1-6.22a123.07,123.07,0,0,1,8.79-11.19,124.34,124.34,0,0,0-9.35,11.12c-.07.08-.13.17-.2.26l-.47.63a117,117,0,0,0-7.25,11l0,0a113,113,0,0,1-9,10.85c-.94,1-1.86,1.89-2.75,2.73a34.58,34.58,0,0,0-21.78-8.9c-8.19-.22-15.94,2.73-22.61,8a34.34,34.34,0,0,1,21.87-6.76,34.34,34.34,0,0,1,21,9c-.64.56-1.27,1.09-1.88,1.57a6.29,6.29,0,0,0,2.76-.77,5.51,5.51,0,0,0,.91-.6c.23-.22.46-.45.68-.69s.34-.34.5-.51a93.2,93.2,0,0,0,7.29-8.64.8.8,0,0,0,.21-.05c.5-.1,1-.22,1.51-.37A22.42,22.42,0,0,0,57,48.3c.26-.09.53-.2.79-.31l.31-.12a27.35,27.35,0,0,0,7.4-4.58c.41-.35.81-.72,1.18-1.1a.35.35,0,0,0,.09-.07A25.53,25.53,0,0,0,68.5,40.2q-.85.19-1.71.45Z"/></g></g></svg>