<svg width="106" height="78" viewBox="0 0 106 78" fill="none" xmlns="http://www.w3.org/2000/svg">
<path d="M22.3649 0.69834C22.3103 1.33615 22.2556 1.39082 21.7275 1.44549C21.2722 1.48194 21.1265 1.59128 21.1265 1.86463C21.1265 2.13798 21.254 2.21087 21.7639 2.21087C22.3103 2.21087 22.4013 2.26554 22.4013 2.61178C22.4013 3.23137 21.8914 7.55028 21.3997 11.0491C21.1629 12.7439 20.9261 14.5844 20.8533 15.0947C20.7622 15.8419 20.653 16.0605 20.4162 16.0605C20.2523 16.0605 19.9427 16.1699 19.7423 16.3157C19.4509 16.5526 19.4327 16.6437 19.633 16.9535C19.7787 17.2086 19.8516 18.1744 19.8516 19.9603V22.5844L19.3599 22.7849C19.0685 22.9125 18.686 23.1129 18.5039 23.2587C18.1761 23.5138 18.1761 23.5503 18.4675 23.8601C18.7224 24.1699 18.7589 24.6255 18.7224 27.6323L18.6678 31.0583L18.1214 31.2405C17.2108 31.5321 16.9012 31.8965 17.1744 32.3521C17.3201 32.6072 17.4111 34.0469 17.4476 36.8715L17.5204 40.9899L16.7008 41.3544C15.7356 41.7735 15.4988 42.1015 15.8995 42.3749C16.1363 42.5571 16.1909 43.2496 16.2273 46.8031C16.2637 49.1175 16.2455 51.0856 16.1727 51.1585C16.0998 51.2314 15.4988 50.8851 14.8614 50.3931C13.9325 49.7006 13.6229 49.3362 13.4772 48.8077C13.2223 47.9148 12.1295 46.712 11.2007 46.2929C9.14266 45.3453 6.61113 46.4204 5.9919 48.4797C5.79157 49.1539 5.73693 49.1904 4.88094 49.2633C3.53322 49.4091 3.09612 49.81 2.1855 51.7781C2.11265 51.9239 1.78482 52.1061 1.43879 52.179C0.783136 52.3066 0 53.0537 0 53.564C0 53.8009 0.109275 53.7462 0.418887 53.3635C0.855986 52.8168 1.63912 52.671 2.58617 52.9444C3.09612 53.0902 3.09612 53.0902 3.09612 52.1425C3.09612 51.6323 3.18718 51.0491 3.27825 50.8487C3.62428 50.2291 4.51669 49.9011 5.59123 50.0104L6.55649 50.1198V49.2633C6.55649 47.0765 9.10624 45.9649 11.1096 47.2952C11.7288 47.6961 12.9126 49.3179 12.7305 49.482C12.6941 49.5184 11.4921 50.302 10.0715 51.2314L7.46712 52.9079V55.1858L6.55649 55.3134C5.86442 55.4045 5.44553 55.605 4.95379 56.0423C4.58954 56.3703 3.98853 56.6984 3.62428 56.7712C2.93221 56.8988 2.00337 57.5002 2.00337 57.8282C2.00337 57.9375 2.25835 57.974 2.67723 57.9011C3.0597 57.8464 3.75177 57.7371 4.20708 57.6824C4.88094 57.5913 5.09949 57.4637 5.26341 57.1175C5.50017 56.6072 6.52007 56.1334 7.06644 56.2792C7.35784 56.3521 7.46712 56.5343 7.50354 57.1357C7.55818 57.8646 7.57639 57.8829 8.19561 57.8829H8.83305L9.01518 53.5275L10.9275 52.1972C11.9838 51.4683 12.9673 50.8851 13.113 50.8669C13.2769 50.8669 14.2422 51.4865 15.2621 52.2337L17.1197 53.6004V54.4933C17.1197 55.8419 17.229 56.0241 17.8118 55.6414C18.2125 55.3863 18.8681 55.3316 22.1099 55.2769L25.9346 55.2223L26.5356 54.6938C27.9744 53.4182 30.5241 53.892 31.6351 55.605C31.8536 55.9512 32.145 56.3886 32.2725 56.5708C32.5457 56.9353 33.6931 57.2086 33.6931 56.8988C33.6931 56.589 31.9265 54.4751 31.2162 53.9284C29.9049 52.9444 27.7922 52.8897 26.2624 53.8009C25.5339 54.22 25.3153 54.1289 25.3153 53.3817C25.3153 52.3612 26.7723 51.4136 28.3568 51.4136C28.8486 51.4136 28.976 51.3043 29.3403 50.5753C30.0506 49.0993 31.7626 48.6619 33.4745 49.5548L34.1484 49.9011L34.203 53.4728C34.2395 56.917 34.2577 57.0628 34.6037 57.0628C34.9497 57.0628 34.968 56.917 34.968 52.8168C34.968 50.5025 35.0226 47.9148 35.0954 47.0947L35.2047 45.6004L37.0624 45.4911L37.1535 44.7804C37.2992 43.687 37.9184 43.3225 39.7761 43.2496C42.0162 43.1403 43.4732 43.9056 44.311 45.6004L44.7663 46.4933L44.8938 45.8191C45.1305 44.5435 45.5858 43.7599 46.6239 42.7758C47.917 41.5913 49.3012 41.0628 51.5413 40.8988C53.4536 40.7712 55.6938 41.2815 57.0415 42.138C58.1524 42.8487 59.0995 44.2337 59.3909 45.5275L59.6094 46.4933L60.1194 45.6004C60.684 44.5981 61.5217 43.8327 62.4688 43.4318C63.4341 43.0309 65.5285 43.0856 66.4027 43.5412C67.3133 43.9968 67.5136 44.2519 67.6047 44.9444C67.6593 45.4546 67.714 45.4911 68.5335 45.5457L69.3895 45.6004V56.8806H70.3002V52.3248L71.1379 51.7781C73.1231 50.5207 75.3086 51.0674 76.3285 53.0902C76.6381 53.6915 76.7656 53.8009 77.0934 53.6915C77.312 53.6186 77.9312 53.5275 78.4411 53.4728C79.4246 53.3635 79.8981 53.0537 79.6614 52.671C79.5703 52.5252 79.1696 52.4888 78.3865 52.5617C77.312 52.671 77.2391 52.6528 76.9477 52.2154C76.711 51.8328 76.6745 51.523 76.7656 50.6847C76.9295 49.3362 76.7656 48.8259 76.2556 48.8988C75.9096 48.9535 75.855 49.081 75.8003 49.8829L75.7457 50.8122L73.8516 50.1562L73.7423 46.6756L77.4395 46.712L81.1366 46.7667L81.2459 50.2291L81.774 49.3726C82.1565 48.7712 82.3204 48.261 82.3204 47.7507C82.3204 47.1676 82.3932 46.9854 82.6846 46.9125C82.885 46.8578 83.0489 46.7302 83.0489 46.6391C83.0489 46.1289 82.3568 45.1084 81.5008 44.3794L80.5356 43.5776L80.4627 41.7917C80.3899 40.1152 80.4081 40.0059 80.8088 39.6961C81.0455 39.5138 81.2276 39.2587 81.2276 39.1494C81.2276 39.0218 80.8088 38.3111 80.2988 37.564C78.7872 35.3043 78.2954 34.1744 78.0222 32.3703C77.6398 29.8737 77.658 29.7644 78.3683 29.6915C79.1332 29.6186 79.1514 29.1266 78.4047 28.999C77.9494 28.9261 77.8583 28.8168 77.8037 28.3065C77.7309 27.5229 77.2573 27.5229 77.1845 28.3065C77.1298 28.835 77.057 28.9079 76.5288 28.9626C75.7093 29.0537 75.7821 29.6186 76.6381 29.6915C77.1845 29.7462 77.2209 29.8009 77.2209 30.4204C77.2027 31.605 76.8749 33.5002 76.4924 34.5024C76.2921 35.0309 75.6364 36.1243 75.0354 36.9261C73.6695 38.7667 73.542 39.1312 74.1794 39.6778C74.6347 40.0605 74.6712 40.2063 74.6712 41.5184C74.6712 43.3772 74.5983 43.5776 73.7423 44.1972C72.9045 44.7986 71.9393 46.0195 71.9393 46.5116C71.9393 46.712 72.1032 46.8578 72.3582 46.8943C72.7406 46.9489 72.7588 47.0218 72.7588 48.5708V50.1927L71.8482 50.4478C71.3565 50.5936 70.8647 50.794 70.7737 50.8851C70.373 51.2678 70.3002 50.9216 70.3002 48.4797C70.3002 46.1107 70.3366 45.892 70.6826 45.6186C70.9194 45.4182 71.0105 45.1995 70.9194 44.9808C70.8648 44.8168 69.7538 43.9968 68.4607 43.1949L66.1113 41.7006V39.0947C66.1113 36.671 66.1477 36.4341 66.5666 35.6323C67.4044 34.0651 67.1858 33.3544 65.2917 31.3681C63.4158 29.3999 62.6327 27.5047 63.2884 26.5207C63.5615 26.1015 63.5615 26.0286 63.3066 25.7371C63.1244 25.5366 63.0152 25.081 63.0152 24.4797C63.0152 23.5503 63.0334 23.5321 63.5615 23.5321C63.9804 23.5321 64.1079 23.4592 64.1079 23.1676C64.1079 22.8942 63.9804 22.8031 63.5798 22.8031C63.1062 22.8031 63.0334 22.7302 62.9787 22.22C62.9423 21.8191 62.8148 21.6004 62.6145 21.5639C62.3413 21.5093 62.2867 21.6368 62.2867 22.1471C62.2867 22.7485 62.2502 22.8031 61.7403 22.8031C61.3214 22.8031 61.1939 22.876 61.1939 23.1676C61.1939 23.4592 61.3214 23.5321 61.7403 23.5321C62.2685 23.5321 62.2867 23.5503 62.2867 24.4068C62.2867 24.8988 62.1592 25.4455 62.0135 25.6824C61.7949 25.974 61.7767 26.1744 61.9224 26.4296C62.1956 26.9398 62.141 27.8874 61.8131 28.8897C61.5946 29.5093 61.0846 30.22 60.083 31.2769C59.0631 32.3703 58.626 32.9717 58.5531 33.4273C58.4074 34.138 58.5531 35.0309 58.9174 35.7599C59.1905 36.2519 59.2998 41.4637 59.0448 41.3544C58.972 41.3179 58.4803 41.0446 57.9521 40.753L57.0051 40.2063V36.1425C57.0051 32.3703 57.0233 32.0241 57.3875 31.3316C57.9339 30.2747 58.0432 28.671 57.6607 27.6505C57.3693 26.8669 56.7501 26.2291 54.7649 24.5708C53.49 23.5138 52.197 20.7257 52.8162 20.343C53.0894 20.179 53.0347 19.5776 52.7069 19.0856C52.5248 18.794 52.4519 18.3202 52.4884 17.6642L52.543 16.6983L53.2351 16.6437C53.7632 16.589 53.9089 16.5161 53.9089 16.2245C53.9089 15.9876 53.7814 15.8783 53.4718 15.8783C52.8708 15.8783 52.4519 15.4227 52.4519 14.7667C52.4519 14.3293 52.3791 14.22 52.1423 14.2747C51.9056 14.3111 51.7781 14.5662 51.7234 15.0583C51.6324 15.769 51.6142 15.7872 50.8492 15.8419C50.23 15.8965 50.0661 15.9694 50.1207 16.2063C50.1572 16.425 50.3939 16.5343 50.9585 16.5708L51.7234 16.6255V17.7188C51.7234 18.4113 51.6142 18.9762 51.432 19.2678C51.1406 19.687 51.1406 19.7598 51.4502 20.3065C51.7416 20.8715 51.7416 20.9808 51.4867 21.9102C51.1042 23.2223 50.4121 24.097 48.9005 25.245C47.1521 26.5389 46.5329 27.5776 46.5329 29.163C46.5511 30.0013 46.6604 30.6391 46.9518 31.2587C47.3342 32.0788 47.3524 32.4068 47.3524 36.0879V40.0423L46.4054 40.7166L45.4401 41.3908L45.3855 38.8031C45.3491 36.8168 45.4037 36.0514 45.6223 35.5229C45.9501 34.7029 45.9865 33.5002 45.6951 32.9535C45.5676 32.7348 44.9302 31.9694 44.2563 31.2587C42.6536 29.564 41.9798 27.8874 42.344 26.5753C42.4351 26.2473 42.3986 25.9011 42.2712 25.646C42.1437 25.4273 42.0708 24.8806 42.1072 24.425C42.1619 23.6961 42.2165 23.6232 42.6718 23.5685C42.945 23.5321 43.1636 23.4045 43.1636 23.2587C43.1636 23.1129 42.945 22.9854 42.6718 22.9489C42.2529 22.9125 42.1437 22.7849 42.0708 22.2564C41.9433 21.4182 41.4516 21.3817 41.3787 22.22C41.3241 22.712 41.233 22.8396 40.7777 22.9307C40.0675 23.0583 40.0857 23.5321 40.7959 23.5321C41.3423 23.5321 41.3423 23.5503 41.3423 24.5161C41.3423 25.0628 41.2695 25.5731 41.1602 25.6277C41.0691 25.6824 40.9781 25.9375 40.9781 26.1744C40.9781 26.4113 41.0691 26.6665 41.1602 26.7211C41.4516 26.9034 41.3787 27.8145 40.9599 28.9079C40.6685 29.6733 40.2496 30.2564 39.339 31.1858C37.4631 33.0446 37.117 34.2109 37.973 35.8145C38.3919 36.6163 38.4283 36.8532 38.4283 39.2223C38.4283 41.6824 38.4101 41.7735 38.0277 41.9193C37.3174 42.1927 33.1467 45.0173 33.1467 45.2359C33.1467 45.3453 33.4017 45.5275 33.6931 45.6368C34.2395 45.8373 34.2395 45.8555 34.2395 47.2769C34.2395 48.6984 34.2395 48.7166 33.8388 48.589C33.602 48.5161 32.8735 48.425 32.1997 48.3703C31.0705 48.2792 30.8884 48.3157 29.9595 48.8441L28.9578 49.4091L28.8486 48.917C28.7757 48.6619 28.7757 47.1312 28.8486 45.5275C28.9396 43.1403 29.0307 42.5571 29.2675 42.3931C29.6681 42.1015 29.4314 41.7917 28.4661 41.3544L27.6465 40.9899L27.7376 36.7804C27.7922 33.9557 27.9015 32.5343 28.029 32.4979C28.1383 32.4614 28.2293 32.261 28.2293 32.0788C28.2293 31.8236 27.9744 31.605 27.4098 31.3498L26.572 30.9854L26.6266 27.4865C26.6631 25.5548 26.7541 23.8419 26.827 23.6778C26.9545 23.4409 26.827 23.2952 26.2442 22.9854L25.4975 22.6209V19.9785C25.4975 18.4296 25.5703 17.3179 25.6796 17.245C26.0621 17.0081 25.8435 16.4797 25.2789 16.2245L24.6779 15.9694L24.3501 13.4182C24.1862 12.015 23.7855 9.11748 23.4941 7.00358C22.802 2.06508 22.802 2.28376 23.5852 2.13798C24.3865 1.97397 24.4594 1.48194 23.6944 1.48194C23.1481 1.48194 22.9477 1.22681 22.9477 0.461438C22.9477 -0.285714 22.4378 -0.0670356 22.3649 0.69834ZM23.2755 13.1448L23.6034 15.9694L22.802 16.0241C22.3649 16.0605 21.946 16.0423 21.8914 15.9876C21.8003 15.8965 22.0189 13.8008 22.5288 9.50016L22.6563 8.49789L22.802 9.40905C22.8749 9.90108 23.0934 11.5958 23.2755 13.1448ZM24.0951 17.2633L24.5868 17.3726V22.6209H23.312V20.8168C23.312 18.958 23.1116 18.4296 22.4924 18.6665C22.2921 18.7576 22.2192 19.1949 22.1828 20.6528L22.1282 22.5298H20.8533L20.7986 19.9967C20.7622 18.3567 20.8169 17.409 20.9443 17.3362C21.1993 17.1721 23.4577 17.1175 24.0951 17.2633ZM53.3261 24.753C53.7268 25.3362 54.9653 26.5024 55.7848 27.0856C56.7865 27.8145 56.9868 29.7097 56.1673 30.9671C55.8941 31.3681 55.8395 31.3863 53.8543 31.2587C52.6887 31.204 51.1588 31.2405 50.2846 31.3498C48.518 31.5867 48.2813 31.4774 47.9352 30.2929C47.4617 28.7257 47.7895 27.7781 49.2465 26.63C50.4121 25.7006 51.6142 24.0423 51.9238 22.9307L52.1241 22.2018L52.5248 23.204C52.7615 23.7507 53.1076 24.4432 53.3261 24.753ZM25.4975 27.4318C25.4975 29.6915 25.4246 31.0218 25.3153 31.0947C25.2061 31.1676 23.9312 31.1494 22.4924 31.0765L19.8516 30.9489V27.5412C19.8516 25.6642 19.9062 24.0788 19.9791 24.0241C20.0337 23.9512 21.3086 23.8965 22.802 23.8965H25.4975V27.4318ZM63.0516 30.1653C63.2155 30.5116 63.8529 31.3134 64.4722 31.9876C65.7653 33.3544 66.0202 34.1562 65.4739 35.1767C65.2371 35.6687 65.0914 35.7599 64.7818 35.6505C63.9986 35.4136 61.631 35.3407 60.9389 35.5412C60.083 35.7598 59.8462 35.6323 59.5548 34.7211C59.2452 33.7917 59.4455 33.2997 60.6111 32.0423C61.1939 31.4227 61.8496 30.6027 62.0863 30.22C62.3049 29.8555 62.5599 29.5457 62.6327 29.5457C62.7056 29.5457 62.9059 29.8191 63.0516 30.1653ZM42.0708 30.0742C42.0708 30.1653 42.69 30.9125 43.455 31.7143C45.0212 33.3726 45.2762 34.1015 44.7116 35.1767C44.4567 35.7052 44.3474 35.7599 43.9285 35.6323C43.6553 35.5412 42.5079 35.4683 41.3787 35.4683C39.1204 35.4683 38.9747 35.3954 38.9747 34.3749C38.9747 33.7553 39.2297 33.3179 40.3953 32.0059C40.8506 31.4956 41.3423 30.8214 41.488 30.4933C41.7612 29.9466 42.0708 29.7097 42.0708 30.0742ZM54.7285 32.1152C56.0762 32.3157 56.1126 32.3339 56.058 32.8077C56.0216 33.1539 55.9123 33.2633 55.6391 33.245C55.4388 33.2268 54.5828 33.1175 53.7632 33.0081C52.6705 32.8624 51.7234 32.8624 50.4121 33.0081C48.9187 33.1722 48.5363 33.1722 48.427 32.9717C48.0992 32.4614 48.2813 32.2974 49.3194 32.1881C49.884 32.1152 50.4486 32.0423 50.5396 32.0059C50.9585 31.8601 53.4536 31.933 54.7285 32.1152ZM26.5902 41.0264H18.7589V32.4614H26.5902V41.0264ZM78.9329 36.6163C79.9164 38.2747 80.1531 38.9307 79.9164 39.1676C79.7707 39.3134 78.9147 39.3863 77.4759 39.3863C74.3798 39.3863 74.3798 39.3863 76.1464 36.3794C76.6199 35.5776 77.1116 34.5753 77.2391 34.138L77.4759 33.3544L77.8583 34.4113C78.0951 34.9945 78.5686 35.9785 78.9329 36.6163ZM55.0927 33.9558L55.8212 34.1927L55.9305 39.5867L54.3642 39.4774L54.3096 37.564C54.255 35.5958 54.1275 35.2496 53.5083 35.5776C53.2169 35.7234 53.1804 36.015 53.1804 37.8373C53.1804 39.7507 53.144 39.933 52.798 40.1152C52.5066 40.2792 51.4685 40.2245 51.341 40.0605C51.3228 40.0423 51.2681 39.04 51.1953 37.8373L51.086 35.6505L50.5943 35.5958L50.0843 35.5412V39.5685H48.4452V36.9261C48.4452 33.9375 48.4088 34.0286 50.0661 33.7371C51.1953 33.5184 54.2003 33.646 55.0927 33.9558ZM43.7646 36.2701C44.6206 36.4706 44.6388 36.4888 44.4931 36.999C44.402 37.3453 44.311 37.3999 43.9103 37.3088C42.7993 37.0355 41.1602 36.9808 40.2496 37.1813C39.4846 37.3453 39.2479 37.3453 39.1204 37.163C39.0476 37.0355 39.0111 36.8532 39.0293 36.7439C39.1933 36.2337 42.2529 35.9239 43.7646 36.2701ZM65.0732 36.3794C65.2553 36.4523 65.3828 36.7075 65.3828 36.9626C65.3828 37.4182 65.3646 37.4182 64.6179 37.2724C63.6344 37.0719 61.4853 37.0719 60.6111 37.2542C60.0283 37.3817 59.9373 37.3453 59.828 37.0173C59.6641 36.5252 59.7551 36.4523 60.5929 36.2701C61.3943 36.1061 64.5814 36.179 65.0732 36.3794ZM43.801 38.0195L44.4567 38.2747L44.402 39.7872C44.3656 41.0264 44.2927 41.2815 44.0742 41.2268C43.9285 41.1904 43.5096 41.1357 43.1454 41.081C42.6172 41.0081 42.4715 40.8806 42.3258 40.4068C42.1983 39.9694 42.0526 39.8419 41.7066 39.8419C41.3241 39.8419 41.233 39.933 41.1966 40.4068C41.142 40.917 41.0691 40.9899 40.4317 41.0993C40.0492 41.1539 39.6121 41.2633 39.4482 41.3179C39.1932 41.4091 39.1568 41.2268 39.1568 39.8783C39.1568 38.8214 39.2297 38.2747 39.3936 38.1289C40.1039 37.5457 42.5443 37.4728 43.801 38.0195ZM64.6179 37.9649L65.2007 38.1835V41.3908L64.7089 41.2815C64.4175 41.2086 63.9986 41.0993 63.7437 41.0264C63.4887 40.9535 63.2519 40.7348 63.1973 40.4797C62.9787 39.5321 61.9224 39.605 61.9224 40.5708C61.9224 40.8988 61.7949 41.0081 61.2121 41.0993C60.8115 41.1539 60.3744 41.2633 60.2104 41.3179C59.9555 41.4091 59.919 41.2268 59.919 39.8601C59.919 38.1835 59.9373 38.1289 61.1757 37.728C61.7949 37.5275 63.8529 37.6733 64.6179 37.9649ZM79.5885 41.9011C79.5885 43.0309 79.6614 43.6141 79.8617 43.8692C80.0074 44.0514 80.1349 44.2701 80.1349 44.343C80.1349 44.4341 78.9329 44.4888 77.4759 44.4888H74.8351L75.1083 44.0879C75.3268 43.7963 75.3997 43.2314 75.3997 41.9922V40.2974H79.5885V41.9011ZM27.4098 50.3931L26.317 50.8122C24.86 51.3589 24.0951 52.1972 23.9312 53.3817C23.8219 54.2747 23.8037 54.2929 23.1481 54.3658C22.7838 54.384 22.0371 54.384 21.4725 54.3658L20.4344 54.2929L20.3433 53.564C20.1976 52.5435 19.7241 52.1061 18.5949 51.9968L17.6661 51.9056V42.4842L22.547 42.5207L27.4098 42.5753V50.3931ZM19.2142 53.6186C19.3052 53.8738 19.2506 54.0742 19.1049 54.1653C18.686 54.4387 18.5767 54.3476 18.5767 53.7826C18.5767 53.1448 19.032 53.0355 19.2142 53.6186Z" fill="#E6DFD6"/>
<path d="M22.1464 26.0651C21.8914 26.3384 21.855 26.7211 21.8914 28.1972L21.946 30.0013L22.7292 30.056L23.4941 30.1107V28.1425C23.4941 26.1198 23.3666 25.7189 22.7656 25.7189C22.6017 25.7189 22.3103 25.8646 22.1464 26.0651Z" fill="#E6DFD6"/>
<path d="M21.946 34.9034C21.5089 35.3407 21.4907 35.4501 21.4907 37.4728V39.5867L23.7673 39.4774V37.3453C23.7673 35.0674 23.6762 34.8305 22.8202 34.5571C22.5106 34.4842 22.2921 34.5753 21.946 34.9034Z" fill="#E6DFD6"/>
<path d="M78.0223 41.4637C77.8584 41.8646 78.0223 43.122 78.2226 43.0856C78.4776 43.0127 78.5686 41.2086 78.3137 41.2086C78.2044 41.2086 78.0769 41.3179 78.0223 41.4637Z" fill="#E6DFD6"/>
<path d="M76.4378 41.5184C76.3649 41.5731 76.3103 41.9558 76.3103 42.3384C76.3103 42.9034 76.3649 43.0309 76.6745 43.0309C76.9841 43.0309 77.0388 42.9034 77.0388 42.2109C77.0388 41.4273 76.7838 41.1539 76.4378 41.5184Z" fill="#E6DFD6"/>
<path d="M21.855 45.0355C21.5089 45.3817 21.4907 45.6004 21.5271 47.4592L21.5818 49.5002H23.7673L23.8219 47.5138C23.8583 45.6733 23.8401 45.4911 23.4759 45.1084C22.9659 44.5799 22.3467 44.5435 21.855 45.0355Z" fill="#E6DFD6"/>
<path d="M40.8324 14.4204C40.4135 14.6027 39.94 14.7302 39.7943 14.6756C39.3572 14.4933 38.2644 14.9671 37.9184 15.4774C37.2627 16.425 37.2992 16.6255 38.0277 16.1152C38.5922 15.7325 38.8472 15.6778 39.6486 15.7507C40.4135 15.8236 40.6503 15.7872 40.887 15.5138C41.3605 15.0036 42.2894 14.7302 42.8722 14.9489C43.455 15.1858 43.5096 14.8942 42.945 14.5298C42.2347 14.0742 41.6519 14.0378 40.8324 14.4204Z" fill="#E6DFD6"/>
<path d="M35.9332 19.9056C35.6054 19.9968 35.2958 20.1608 35.2411 20.2519C35.1865 20.343 34.6401 20.3795 34.0027 20.3066C33.0557 20.2337 32.8007 20.2701 32.4546 20.5617L32.0175 20.9079L32.7643 20.835C33.256 20.7804 33.7659 20.8897 34.3123 21.1448L35.1137 21.5457L35.66 20.999C35.9696 20.671 36.5524 20.3612 37.0806 20.2337C37.7727 20.0514 37.882 19.9785 37.5906 19.8692C37.1352 19.687 36.6435 19.7052 35.9332 19.9056Z" fill="#E6DFD6"/>
<path d="M100.788 25.0993C98.5842 26.7393 94.9781 30.9125 91.9548 35.286C89.7147 38.5298 80.3353 53.892 77.2209 59.4318C76.6745 60.3794 76.1646 61.2177 76.0553 61.2906C75.1083 61.892 75.0901 61.9284 75.855 62.2564L76.5835 62.548L75.9278 63.1312C75.5818 63.4592 74.8897 64.0241 74.4162 64.425L73.542 65.1175L73.6695 66.3567C73.7605 67.2678 73.7059 67.8692 73.4874 68.7075C73.1595 69.8555 73.1777 71.4956 73.5238 71.8419C73.7605 72.0788 76.5288 70.4204 77.8219 69.2724C78.8965 68.3066 79.7342 66.9034 79.8799 65.7553C79.9892 64.917 80.0074 64.8988 80.6266 64.8988C81.2094 64.8988 81.2641 64.8624 81.1548 64.4797C81.0455 63.9876 81.1912 63.7143 84.4148 58.7211C90.0971 49.9193 91.5359 47.6596 93.5757 44.3977C96.4533 39.8054 97.9285 37.1995 99.7315 33.4637C101.753 29.3088 102.591 27.0309 102.609 25.6277C102.627 24.5708 102.609 24.5343 102.154 24.4797C101.826 24.4432 101.389 24.6437 100.788 25.0993ZM101.061 26.1198C100.934 26.3567 100.624 26.8669 100.351 27.2678C99.7133 28.1972 96.0344 33.974 94.4317 36.5799C93.7579 37.6733 92.5376 39.6232 91.6998 40.9353C88.5491 45.9284 82.6482 55.4774 80.6449 58.794C79.4975 60.6892 78.4411 62.2747 78.2954 62.3111C78.1497 62.3293 77.8766 62.2382 77.6944 62.1107C77.3848 61.8738 77.4577 61.6915 79.0786 59.0491C80.0256 57.5002 82.029 54.1835 83.5042 51.687C90.3157 40.2428 93.4482 35.3043 96.6172 31.0947C98.4385 28.6892 100.952 25.7188 101.189 25.7188C101.243 25.7188 101.17 25.9011 101.061 26.1198ZM78.2044 63.8236C79.1879 64.589 78.5868 66.7576 76.9113 68.5617C76.0189 69.5275 74.6165 70.548 74.1794 70.548C73.8334 70.548 73.888 69.6733 74.3251 68.2519C74.5619 67.4501 74.6712 66.7758 74.5983 66.3567C74.5073 65.7735 74.5619 65.6277 75.1811 65.0628C77.0024 63.3316 77.3848 63.1858 78.2044 63.8236Z" fill="#E6DFD6"/>
<path d="M49.9933 42.5389C48.1902 43.0127 46.6422 44.3794 46.2779 45.8738C46.1504 46.3476 46.0776 48.8259 46.0776 52.2337V57.81L46.4965 57.7553L46.8971 57.7006L46.9882 51.8692C47.061 46.7302 47.1157 45.9649 47.4071 45.4364C47.826 44.671 49.0098 43.8327 50.139 43.4865C51.341 43.122 53.4354 43.1403 54.5099 43.5047C55.6391 43.8874 56.9504 45.0537 57.1872 45.9102C57.2965 46.3111 57.3693 48.917 57.3693 52.179V57.7917H58.2799V52.0697C58.2799 45.6733 58.2253 45.2724 57.0597 44.0879C56.0216 43.0127 54.51 42.4478 52.543 42.3749C51.596 42.3384 50.5214 42.4113 49.9933 42.5389Z" fill="#E6DFD6"/>
<path d="M39.43 44.835C38.6287 45.0355 38.1187 45.3999 37.5541 46.2018C37.0624 46.9125 37.0624 46.9307 37.0078 50.6482C36.9531 53.6551 36.9895 54.3476 37.1899 54.2929C37.372 54.22 37.4449 53.3817 37.5177 50.8487C37.6088 47.9148 37.6634 47.4045 37.9912 46.8578C39.0293 45.0719 41.6155 45.0901 42.7083 46.8942C43.0361 47.4409 43.0725 47.8783 43.1271 52.1972C43.1818 56.4979 43.2182 56.8988 43.4914 56.8441C43.7646 56.7895 43.801 56.3521 43.801 52.0514C43.801 46.7849 43.7828 46.712 42.5443 45.6186C41.6155 44.7986 40.6138 44.5617 39.43 44.835Z" fill="#E6DFD6"/>
<path d="M63.3794 44.835C62.5052 45.1084 61.7949 45.564 61.4489 46.0742C60.684 47.204 60.6476 47.4774 60.6476 52.2519C60.6476 56.7166 60.6658 56.8806 61.0118 56.8806C61.3396 56.8806 61.3578 56.6983 61.4125 52.0696C61.4671 46.5845 61.4671 46.6027 63.0334 45.8009C64.3811 45.0901 65.911 45.5822 66.5484 46.9307C66.7852 47.4227 66.8398 48.1881 66.8398 50.8305C66.8398 52.9626 66.9126 54.1653 67.0401 54.2382C67.1494 54.3111 67.2587 54.3293 67.3133 54.2929C67.3497 54.2382 67.4044 52.6163 67.4226 50.6665C67.4772 47.6596 67.4408 47.0583 67.1676 46.5845C66.3481 45.0901 64.8364 44.3977 63.3794 44.835Z" fill="#E6DFD6"/>
<path d="M97.5825 47.4227C96.5626 47.7143 95.488 48.7348 95.1238 49.7735C94.7777 50.7576 95.0327 50.6482 92.0277 50.9762C91.1352 51.0856 91.0442 51.122 90.5889 51.9239C90.3157 52.3977 89.3686 53.8737 88.4762 55.1858C87.602 56.5161 86.8735 57.6277 86.8735 57.6824C86.8735 57.7188 87.001 57.7917 87.1467 57.8646C87.3288 57.9193 87.511 57.7188 87.7659 57.1539C88.0391 56.5343 88.3123 56.261 89.0044 55.9147C90.1518 55.3316 90.5524 54.8578 91.2445 53.3635C91.8091 52.1608 91.8273 52.1425 92.5376 52.1425C93.5393 52.1425 94.6138 52.7439 95.1966 53.6368C95.6519 54.3111 95.7066 54.5845 95.7612 56.1881C95.8341 57.9193 95.8523 57.9922 96.2165 57.9375C96.5808 57.8829 96.6172 57.7553 96.7083 56.2428L96.7993 54.6027L97.3639 54.548C98.5295 54.4387 99.3673 55.7872 98.912 57.0628C98.7663 57.4819 98.7845 57.646 98.9484 57.7006C99.4584 57.8464 102.536 57.9193 102.536 57.7735C102.536 57.5002 101.389 56.8806 100.66 56.7712C100.023 56.6619 99.9683 56.6072 99.859 55.8965C99.7862 55.3681 99.5494 54.9489 99.0759 54.4569C98.4749 53.8555 98.2927 53.7826 97.4914 53.7826C96.6536 53.7826 96.5626 53.728 95.9251 52.9808C95.4152 52.3612 94.9781 52.0514 94.1585 51.7598C92.9565 51.3225 92.5012 50.9398 93.3572 51.122C93.6486 51.1767 94.2678 51.2678 94.7595 51.3407L95.6155 51.4501V50.6118C95.6155 49.9011 95.7248 49.6642 96.253 49.0628C97.4732 47.7143 99.1852 47.6961 100.697 48.9899C101.607 49.7553 101.99 50.5389 101.99 51.5776C101.99 52.2883 102.008 52.3065 102.463 52.1425C103.702 51.6687 105.068 52.179 105.56 53.3088L105.796 53.8737L105.815 53.2906C105.815 52.343 105.086 51.6505 103.793 51.3772C102.755 51.1585 102.718 51.1403 102.718 50.5936C102.718 49.7735 101.79 48.425 100.842 47.8783C99.9137 47.3316 98.5842 47.1494 97.5825 47.4227Z" fill="#E6DFD6"/>
<path d="M50.485 48.4979C49.2465 49.2451 49.1737 49.5913 49.1737 54.0013V57.974H55.0017V54.0013C55.0017 49.5913 54.9288 49.2451 53.6904 48.4979C52.8708 48.0059 51.3046 48.0059 50.485 48.4979Z" fill="#E6DFD6"/>
<path d="M39.9035 48.5708C39.7578 48.7348 39.7032 49.4819 39.7396 50.7029L39.7943 52.5981H40.887L40.9417 50.7029C40.9963 48.8259 40.8688 48.3157 40.3406 48.3157C40.2132 48.3157 40.0128 48.425 39.9035 48.5708Z" fill="#E6DFD6"/>
<path d="M63.7983 48.4432C63.6344 48.4979 63.5616 49.1175 63.5616 50.6118V52.6892H64.6543V50.7211C64.6543 48.5526 64.5086 48.1517 63.7983 48.4432Z" fill="#E6DFD6"/>
<path d="M78.4412 48.9717C78.3683 49.0446 78.3137 49.6277 78.3137 50.2656C78.3137 51.3772 78.3319 51.4136 78.769 51.4136C79.2425 51.4136 79.2425 51.3954 79.1879 50.1927C79.1514 49.245 79.0604 48.9535 78.86 48.8988C78.6961 48.8806 78.514 48.8988 78.4412 48.9717Z" fill="#E6DFD6"/>
<path d="M14.8067 54.6391C14.6428 54.6938 14.57 55.0947 14.57 55.8054C14.57 56.8259 14.5882 56.8806 15.0253 56.8806C15.4624 56.8806 15.4806 56.8259 15.4806 55.8054C15.4806 54.7485 15.3167 54.4569 14.8067 54.6391Z" fill="#E6DFD6"/>
<path d="M11.5831 55.1494C11.4192 55.5867 11.4557 56.753 11.6378 57.0264C11.7288 57.1722 11.9474 57.245 12.1295 57.2086C12.4209 57.1539 12.4755 56.9899 12.4755 56.0605C12.4755 55.0765 12.4391 54.9671 12.0931 54.9125C11.8563 54.876 11.656 54.9854 11.5831 55.1494Z" fill="#E6DFD6"/>
<path d="M92.1005 56.0788C92.0277 56.1517 91.973 56.5708 91.973 57.0081C91.973 57.7553 91.9912 57.7917 92.5376 57.7917C93.084 57.7917 93.084 57.7735 93.0293 56.917C92.9929 56.2245 92.9019 56.0423 92.6105 56.0059C92.3919 55.9694 92.1734 56.0059 92.1005 56.0788Z" fill="#E6DFD6"/>
<path d="M66.9126 56.5343C66.858 56.6437 66.8762 56.8077 66.9491 56.8806C67.1676 57.0993 67.6411 56.7895 67.4954 56.5343C67.3315 56.2792 67.0766 56.2792 66.9126 56.5343Z" fill="#E6DFD6"/>
<path d="M37.1899 56.7348C37.2445 56.8624 37.5177 56.9899 37.8091 57.0264C38.3191 57.0628 38.3191 57.0628 37.9912 56.7895C37.5541 56.4615 37.0988 56.425 37.1899 56.7348Z" fill="#E6DFD6"/>
<path d="M89.0044 56.8259C88.8587 56.9717 88.8405 57.6824 88.9862 57.8282C89.0408 57.8829 89.2411 57.9011 89.4415 57.8464C89.915 57.7189 89.9332 56.6984 89.4597 56.6984C89.2776 56.6984 89.059 56.753 89.0044 56.8259Z" fill="#E6DFD6"/>
<path d="M67.8415 57.8282C66.0202 58.0104 62.6145 58.7211 60.9207 59.2678C59.4091 59.7599 56.7319 61.1448 55.6209 62.0013C55.111 62.384 54.1457 63.2769 53.4718 63.9694L52.2516 65.245L50.9403 63.9148C48.0081 60.9626 44.5113 59.3407 38.6651 58.2291C35.6418 57.646 19.9245 57.6824 17.575 58.2656C17.3201 58.3384 17.0105 58.8122 16.5916 59.851C14.6975 64.3703 12.1659 68.671 10.0533 70.9489C9.39764 71.6596 9.27015 71.8965 9.36121 72.2792C9.50691 72.8441 8.55987 73.9375 6.72041 75.3043C5.39089 76.2883 5.15413 76.7986 5.77336 77.3088C6.15582 77.6368 7.3032 77.6368 29.0671 77.3088L46.2233 77.0537L46.8607 77.4546C49.3194 78.9671 54.9653 79.0218 57.4968 77.5275L58.2617 77.0902L73.0685 77.2724C81.2094 77.3817 89.9696 77.5093 92.5194 77.564C97.3639 77.6915 97.9831 77.6186 98.3292 76.9444C98.6206 76.4159 98.4384 76.1243 97.1454 75.1767C95.5791 74.0104 94.7049 72.9353 94.7049 72.1517C94.7049 71.6779 94.541 71.3863 94.0492 70.8943C92.5376 69.4728 89.3868 64.2063 87.9663 60.7439C87.256 59.0309 87.1467 58.8851 86.6914 58.8851C85.8901 58.8851 85.6715 59.2861 85.9811 60.2154C86.4728 61.7097 88.8769 66.302 90.3339 68.507C91.1535 69.7462 91.7909 70.7849 91.7545 70.8214C91.718 70.8578 90.7528 70.7667 89.6054 70.6391C88.458 70.4933 85.8536 70.2382 83.8503 70.0742L80.1713 69.7826L79.4246 70.3293L78.6597 70.8943L79.4428 70.9854C79.8799 71.04 81.2094 71.1311 82.4115 71.1858C84.9976 71.3134 87.2378 71.5321 90.3521 71.933L92.6469 72.2245L93.0293 73.0264L93.43 73.8282H92.1005C91.3902 73.8282 88.9497 73.7006 86.6914 73.5731C84.4331 73.4273 80.9545 73.245 78.9511 73.1722C75.7639 73.0628 75.2175 73.081 74.7258 73.3544C73.9791 73.7371 73.633 73.7188 72.8135 73.2815C72.1578 72.9352 71.9575 72.9353 67.2587 73.0993C64.5815 73.2086 61.3578 73.4091 60.1194 73.5548C58.8809 73.7189 57.8246 73.81 57.7882 73.7553C57.5696 73.5366 65.4374 71.9512 68.2968 71.6414C72.0303 71.2587 71.6843 71.3681 71.6115 70.548C71.575 70.1471 71.484 69.8191 71.4111 69.8191C71.3565 69.8191 70.3184 69.9102 69.1164 70.0013C64.8911 70.3658 60.4472 71.3498 56.8411 72.7166L54.9653 73.4273L50.7218 73.245L49.629 72.1881C47.2432 69.9102 44.311 68.4706 39.5393 67.2678C35.8422 66.3202 35.059 66.2655 27.5919 66.2838C23.7855 66.302 20.143 66.3749 19.4874 66.466C18.431 66.6118 18.3035 66.6847 18.2489 67.0674C18.1761 67.4683 18.2125 67.4865 18.9774 67.3772C21.946 66.9398 32.655 66.9398 35.6054 67.3589C40.7777 68.1243 45.4219 69.7826 48.8823 72.1517C51.1224 73.6642 50.5578 73.9011 47.5346 72.7166C41.9798 70.548 34.4398 69.4546 27.0455 69.7097C22.1828 69.892 18.4675 70.1471 15.2256 70.548C13.6229 70.7485 12.2934 70.876 12.2388 70.8214C12.2024 70.7849 12.4027 70.4387 12.6941 70.056C14.3332 67.9239 16.7373 63.6232 17.7572 60.9626L18.2671 59.6687L20.0155 59.4501C26.5902 58.6665 32.1086 58.7211 37.6088 59.6323C44.4931 60.7621 49.2648 63.4227 51.5595 67.4318C52.1605 68.507 52.4519 68.7804 52.4519 68.3066C52.4519 67.8328 54.2185 65.5366 55.4752 64.3521C56.1673 63.6961 57.2418 62.8578 57.861 62.4933C61.3032 60.4523 66.6941 59.1585 72.4857 58.958C76.2739 58.8305 76.3649 58.8122 76.6199 58.1562L76.8202 57.6095L73.1595 57.6277C71.1379 57.646 68.7521 57.7371 67.8415 57.8282ZM29.6863 71.0947C34.3123 71.3134 37.0806 71.6596 41.0691 72.4614C43.8739 73.0264 46.8061 73.7735 46.3508 73.81C46.2597 73.8282 45.2034 73.7006 44.0013 73.5548C38.0459 72.8077 29.1582 72.8077 16.9376 73.5548C14.5882 73.7006 12.1841 73.8282 11.6196 73.8282H10.5815L10.9093 73.0446C11.2189 72.3157 11.2917 72.261 12.3116 72.0605C13.969 71.7325 18.8863 71.2405 22.2192 71.0947C23.8766 71.0218 25.3882 70.9671 25.5885 70.9489C25.7889 70.9307 27.6283 71.0036 29.6863 71.0947ZM44.1653 74.5207C44.6388 74.6118 43.0361 74.7211 39.7032 74.794C34.1666 74.9398 22.9113 75.3589 16.7555 75.6505C11.4192 75.9056 10.5632 75.8874 10.5632 75.5594C10.5632 75.3954 10.6725 75.2496 10.7818 75.1949C11.146 75.0856 21.9096 74.5389 27.0455 74.3749C32.0904 74.2109 43.0361 74.302 44.1653 74.5207ZM84.3238 74.7211C93.4664 75.1949 93.43 75.1949 93.43 75.687C93.43 76.0514 93.3754 76.0696 91.8455 75.9603C87.3835 75.6323 65.3828 74.7394 61.7949 74.7394C60.5201 74.7394 59.5548 74.6847 59.6277 74.5936C60.1194 74.1015 73.4509 74.1744 84.3238 74.7211ZM56.4587 76.3794C56.5133 76.3977 56.2219 76.5252 55.8212 76.6892C54.6739 77.1266 50.9949 77.2177 49.5379 76.8532C48.8823 76.6892 48.2995 76.4888 48.2266 76.4159C48.1174 76.3066 56.1491 76.2701 56.4587 76.3794Z" fill="#E6DFD6"/>
<path d="M23.0388 61.0719C21.946 61.1448 20.9261 61.2177 20.8169 61.2359C20.6894 61.2359 20.5801 61.4728 20.5801 61.728C20.5801 62.1289 20.653 62.1835 20.999 62.1107C21.2175 62.056 22.9113 61.9466 24.769 61.8738C32.6732 61.6004 39.2115 62.7302 44.3838 65.2815C47.2614 66.7029 49.0462 68.2154 50.4304 70.3658C51.4503 72.0059 51.5777 71.7143 50.6671 69.8373C49.7383 67.9239 47.3707 65.81 44.5295 64.3886C41.9433 63.0947 37.4449 61.8191 33.8752 61.3635C31.1251 61.0173 25.7889 60.8715 23.0388 61.0719Z" fill="#E6DFD6"/>
<path d="M70.2091 61.4546C62.487 62.6027 57.5514 64.8624 54.6921 68.5981C53.9454 69.5639 53.053 71.3863 53.2351 71.5685C53.2715 71.6232 53.6175 71.1494 53.9818 70.5662C56.7501 66.0469 62.1228 63.3681 70.5369 62.2564C71.7207 62.1107 72.7224 61.9831 72.7406 61.9831C72.7771 61.9831 72.941 61.7826 73.1049 61.5275C73.3963 61.0901 73.3963 61.0719 72.9956 61.0902C72.7589 61.0902 71.5204 61.2542 70.2091 61.4546Z" fill="#E6DFD6"/>
<path d="M23.6216 63.6414C21.6182 63.7143 19.888 63.8236 19.7423 63.8783C19.5966 63.933 19.4874 64.1517 19.4874 64.3521C19.4874 64.7166 19.5602 64.7348 20.999 64.6437C24.9693 64.3886 26.7723 64.3521 29.9595 64.5161C36.6799 64.8624 40.9417 65.8464 45.2398 68.0514C46.97 68.9444 49.9022 71.1494 50.5396 72.0605C50.6853 72.2792 50.8128 72.3703 50.8128 72.2792C50.7946 71.8419 48.9187 69.5822 47.8624 68.7439C44.6388 66.1562 38.1551 64.0241 32.6003 63.7143C28.8304 63.5138 27.082 63.5138 23.6216 63.6414Z" fill="#E6DFD6"/>
<path d="M68.2968 64.1699C61.3032 65.3544 57.0961 67.4865 54.2368 71.2587C53.5083 72.2245 53.6175 72.4979 54.4007 71.6414C57.3875 68.3248 62.4506 66.0286 69.0253 65.0446C71.4658 64.6619 71.7572 64.589 71.9211 64.2245C72.1032 63.8236 72.085 63.8054 71.1562 63.8236C70.6462 63.8236 69.3531 63.9876 68.2968 64.1699Z" fill="#E6DFD6"/>
<path d="M82.1383 66.1744C82.284 66.2655 82.6665 66.3384 82.9578 66.3384C83.4314 66.3384 83.4496 66.302 83.14 66.1744C82.9396 66.0833 82.5754 66.0104 82.3204 66.0104C81.9562 65.9922 81.9197 66.0286 82.1383 66.1744Z" fill="#E6DFD6"/>
<path d="M70.8465 66.3202C64.29 66.8487 57.5879 69.2542 54.8742 72.0605L54 72.9535L55.2384 72.2063C59.7005 69.4911 63.7801 68.1061 69.4442 67.3589C70.628 67.2132 71.6661 67.0856 71.7754 67.0856C72.0121 67.0856 71.9757 66.6118 71.7207 66.4296C71.5933 66.3384 71.1926 66.2838 70.8465 66.3202Z" fill="#E6DFD6"/>
</svg>
